<mxfile host="Electron" agent="Mozilla/5.0 (Macintosh; Intel Mac OS X 10_15_7) AppleWebKit/537.36 (KHTML, like Gecko) draw.io/24.7.17 Chrome/128.0.6613.36 Electron/32.0.1 Safari/537.36" version="24.7.17">
  <diagram id="C5RBs43oDa-KdzZeNtuy" name="Page-1">
    <mxGraphModel dx="1466" dy="1103" grid="1" gridSize="10" guides="1" tooltips="1" connect="1" arrows="1" fold="1" page="1" pageScale="1" pageWidth="827" pageHeight="1169" math="0" shadow="0">
      <root>
        <mxCell id="WIyWlLk6GJQsqaUBKTNV-0" />
        <mxCell id="WIyWlLk6GJQsqaUBKTNV-1" parent="WIyWlLk6GJQsqaUBKTNV-0" />
        <mxCell id="oeGGP7yuaMlsALmMAgm1-2" value="&lt;h1 style=&quot;margin-top: 0px;&quot;&gt;Interators and Prefix search Indexer v1 architecture&lt;/h1&gt;&lt;p&gt;(1) Defined the idea how we are planning to introduce these features as PoC&lt;br&gt;&lt;span style=&quot;background-color: initial;&quot;&gt;(2) A key limitation of this architecture: it limited by RAM size&lt;br&gt;&lt;/span&gt;&lt;span style=&quot;background-color: initial;&quot;&gt;(3) Iterators and prefixes allow &quot;dirty reads&quot;.&lt;br&gt;(4) A key benefit of indexer v1: much simple to implement and deploy to DevNet for stability testing.&lt;/span&gt;&lt;/p&gt;" style="text;html=1;whiteSpace=wrap;overflow=hidden;rounded=0;" vertex="1" parent="WIyWlLk6GJQsqaUBKTNV-1">
          <mxGeometry x="40" y="40" width="760" height="120" as="geometry" />
        </mxCell>
        <mxCell id="oeGGP7yuaMlsALmMAgm1-4" value="&lt;h1 style=&quot;margin-top: 0px;&quot;&gt;Legend&lt;/h1&gt;&lt;p&gt;(1) indexer:&amp;nbsp;https://github.com/LayerZero-Labs/qmdb/blob/main/qmdb/src/indexer/inmem.rs&amp;nbsp;&lt;br&gt;(2) QMDB:&amp;nbsp;https://github.com/LayerZero-Labs/qmdb/tree/main/qmdb/src&lt;br&gt;(3) QF Hash DB it&#39;s our object that extend QMDB (https://lib.rs/crates/hash-db)&lt;br&gt;&lt;/p&gt;" style="text;html=1;whiteSpace=wrap;overflow=hidden;rounded=0;" vertex="1" parent="WIyWlLk6GJQsqaUBKTNV-1">
          <mxGeometry x="891" y="40" width="700" height="120" as="geometry" />
        </mxCell>
        <mxCell id="oeGGP7yuaMlsALmMAgm1-28" style="edgeStyle=orthogonalEdgeStyle;rounded=0;orthogonalLoop=1;jettySize=auto;html=1;entryX=0;entryY=0.5;entryDx=0;entryDy=0;" edge="1" parent="WIyWlLk6GJQsqaUBKTNV-1" source="oeGGP7yuaMlsALmMAgm1-7" target="oeGGP7yuaMlsALmMAgm1-8">
          <mxGeometry relative="1" as="geometry">
            <Array as="points">
              <mxPoint x="455" y="660" />
              <mxPoint x="455" y="600" />
            </Array>
          </mxGeometry>
        </mxCell>
        <mxCell id="oeGGP7yuaMlsALmMAgm1-8" value="insert(key, value)" style="shape=process;whiteSpace=wrap;html=1;backgroundOutline=1;" vertex="1" parent="WIyWlLk6GJQsqaUBKTNV-1">
          <mxGeometry x="590" y="570" width="120" height="60" as="geometry" />
        </mxCell>
        <mxCell id="oeGGP7yuaMlsALmMAgm1-25" style="edgeStyle=orthogonalEdgeStyle;rounded=0;orthogonalLoop=1;jettySize=auto;html=1;startArrow=classic;startFill=1;endArrow=none;endFill=0;entryX=1;entryY=0.5;entryDx=0;entryDy=0;entryPerimeter=0;" edge="1" parent="WIyWlLk6GJQsqaUBKTNV-1" source="oeGGP7yuaMlsALmMAgm1-10" target="oeGGP7yuaMlsALmMAgm1-16">
          <mxGeometry relative="1" as="geometry">
            <mxPoint x="864" y="630" as="targetPoint" />
            <Array as="points">
              <mxPoint x="810" y="840" />
              <mxPoint x="810" y="510" />
            </Array>
          </mxGeometry>
        </mxCell>
        <mxCell id="oeGGP7yuaMlsALmMAgm1-32" value="dirty reads, if not saved in QMDB" style="edgeLabel;html=1;align=center;verticalAlign=middle;resizable=0;points=[];" vertex="1" connectable="0" parent="oeGGP7yuaMlsALmMAgm1-25">
          <mxGeometry x="0.1432" y="3" relative="1" as="geometry">
            <mxPoint x="3" y="199" as="offset" />
          </mxGeometry>
        </mxCell>
        <mxCell id="oeGGP7yuaMlsALmMAgm1-27" style="edgeStyle=orthogonalEdgeStyle;rounded=0;orthogonalLoop=1;jettySize=auto;html=1;" edge="1" parent="WIyWlLk6GJQsqaUBKTNV-1" source="oeGGP7yuaMlsALmMAgm1-10" target="oeGGP7yuaMlsALmMAgm1-7">
          <mxGeometry relative="1" as="geometry">
            <Array as="points">
              <mxPoint x="380" y="840" />
              <mxPoint x="380" y="695" />
            </Array>
          </mxGeometry>
        </mxCell>
        <mxCell id="oeGGP7yuaMlsALmMAgm1-12" style="edgeStyle=orthogonalEdgeStyle;rounded=0;orthogonalLoop=1;jettySize=auto;html=1;" edge="1" parent="WIyWlLk6GJQsqaUBKTNV-1" source="oeGGP7yuaMlsALmMAgm1-8">
          <mxGeometry relative="1" as="geometry">
            <mxPoint x="1000" y="600" as="targetPoint" />
          </mxGeometry>
        </mxCell>
        <mxCell id="oeGGP7yuaMlsALmMAgm1-14" style="edgeStyle=orthogonalEdgeStyle;rounded=0;orthogonalLoop=1;jettySize=auto;html=1;entryX=0;entryY=0.5;entryDx=0;entryDy=0;entryPerimeter=0;exitX=1;exitY=0.5;exitDx=0;exitDy=0;" edge="1" parent="WIyWlLk6GJQsqaUBKTNV-1" target="oeGGP7yuaMlsALmMAgm1-0">
          <mxGeometry relative="1" as="geometry">
            <mxPoint x="924" y="600" as="sourcePoint" />
          </mxGeometry>
        </mxCell>
        <mxCell id="oeGGP7yuaMlsALmMAgm1-15" value="batch insert oprations by size or time" style="edgeLabel;html=1;align=center;verticalAlign=middle;resizable=0;points=[];rotation=90;" vertex="1" connectable="0" parent="oeGGP7yuaMlsALmMAgm1-14">
          <mxGeometry x="0.0948" y="-2" relative="1" as="geometry">
            <mxPoint x="15" y="-27" as="offset" />
          </mxGeometry>
        </mxCell>
        <mxCell id="oeGGP7yuaMlsALmMAgm1-47" style="edgeStyle=orthogonalEdgeStyle;rounded=0;orthogonalLoop=1;jettySize=auto;html=1;entryX=1;entryY=0.5;entryDx=0;entryDy=0;exitX=0;exitY=0.5;exitDx=0;exitDy=0;startArrow=classic;startFill=1;endArrow=none;endFill=0;" edge="1" parent="WIyWlLk6GJQsqaUBKTNV-1" source="oeGGP7yuaMlsALmMAgm1-19" target="oeGGP7yuaMlsALmMAgm1-45">
          <mxGeometry relative="1" as="geometry">
            <Array as="points">
              <mxPoint x="680" y="390" />
              <mxPoint x="680" y="440" />
              <mxPoint x="450" y="440" />
              <mxPoint x="450" y="560" />
            </Array>
          </mxGeometry>
        </mxCell>
        <mxCell id="oeGGP7yuaMlsALmMAgm1-64" value="block process until done" style="edgeLabel;html=1;align=center;verticalAlign=middle;resizable=0;points=[];rotation=-90;" vertex="1" connectable="0" parent="oeGGP7yuaMlsALmMAgm1-47">
          <mxGeometry x="0.721" y="3" relative="1" as="geometry">
            <mxPoint x="21" y="-53" as="offset" />
          </mxGeometry>
        </mxCell>
        <mxCell id="oeGGP7yuaMlsALmMAgm1-16" value="in-memory indexer instance (search_key -&amp;gt; QMDB key)" style="shape=cylinder3;whiteSpace=wrap;html=1;boundedLbl=1;backgroundOutline=1;size=15;" vertex="1" parent="WIyWlLk6GJQsqaUBKTNV-1">
          <mxGeometry x="610" y="460" width="90" height="100" as="geometry" />
        </mxCell>
        <mxCell id="oeGGP7yuaMlsALmMAgm1-19" value="restore_at_start_or_die()" style="shape=process;whiteSpace=wrap;html=1;backgroundOutline=1;" vertex="1" parent="WIyWlLk6GJQsqaUBKTNV-1">
          <mxGeometry x="720" y="360" width="180" height="60" as="geometry" />
        </mxCell>
        <mxCell id="oeGGP7yuaMlsALmMAgm1-21" style="edgeStyle=orthogonalEdgeStyle;rounded=0;orthogonalLoop=1;jettySize=auto;html=1;entryX=1;entryY=0.5;entryDx=0;entryDy=0;entryPerimeter=0;dashed=1;startArrow=classic;startFill=1;endArrow=none;endFill=0;exitX=1;exitY=0.5;exitDx=0;exitDy=0;" edge="1" parent="WIyWlLk6GJQsqaUBKTNV-1" source="oeGGP7yuaMlsALmMAgm1-19" target="oeGGP7yuaMlsALmMAgm1-0">
          <mxGeometry relative="1" as="geometry">
            <mxPoint x="1170" y="480" as="sourcePoint" />
            <Array as="points">
              <mxPoint x="1290" y="390" />
              <mxPoint x="1290" y="770" />
            </Array>
          </mxGeometry>
        </mxCell>
        <mxCell id="oeGGP7yuaMlsALmMAgm1-37" value="Read QMDB data at start using MetaDB API" style="edgeLabel;html=1;align=center;verticalAlign=middle;resizable=0;points=[];rotation=90;" vertex="1" connectable="0" parent="oeGGP7yuaMlsALmMAgm1-21">
          <mxGeometry x="-0.101" y="4" relative="1" as="geometry">
            <mxPoint x="36" y="154" as="offset" />
          </mxGeometry>
        </mxCell>
        <mxCell id="oeGGP7yuaMlsALmMAgm1-24" style="edgeStyle=orthogonalEdgeStyle;rounded=0;orthogonalLoop=1;jettySize=auto;html=1;entryX=1;entryY=0;entryDx=0;entryDy=67.5;startArrow=classic;startFill=1;endArrow=none;endFill=0;entryPerimeter=0;" edge="1" parent="WIyWlLk6GJQsqaUBKTNV-1" source="oeGGP7yuaMlsALmMAgm1-23" target="oeGGP7yuaMlsALmMAgm1-16">
          <mxGeometry relative="1" as="geometry">
            <Array as="points">
              <mxPoint x="780" y="760" />
              <mxPoint x="780" y="528" />
            </Array>
          </mxGeometry>
        </mxCell>
        <mxCell id="oeGGP7yuaMlsALmMAgm1-31" value="dirty reads, if not saved in QMDB" style="edgeLabel;html=1;align=center;verticalAlign=middle;resizable=0;points=[];rotation=-90;" vertex="1" connectable="0" parent="oeGGP7yuaMlsALmMAgm1-24">
          <mxGeometry x="0.1185" relative="1" as="geometry">
            <mxPoint x="-10" y="54" as="offset" />
          </mxGeometry>
        </mxCell>
        <mxCell id="oeGGP7yuaMlsALmMAgm1-26" style="edgeStyle=orthogonalEdgeStyle;rounded=0;orthogonalLoop=1;jettySize=auto;html=1;" edge="1" parent="WIyWlLk6GJQsqaUBKTNV-1" source="oeGGP7yuaMlsALmMAgm1-23" target="oeGGP7yuaMlsALmMAgm1-7">
          <mxGeometry relative="1" as="geometry">
            <Array as="points">
              <mxPoint x="455" y="760" />
              <mxPoint x="455" y="710" />
            </Array>
          </mxGeometry>
        </mxCell>
        <mxCell id="oeGGP7yuaMlsALmMAgm1-29" style="edgeStyle=orthogonalEdgeStyle;rounded=0;orthogonalLoop=1;jettySize=auto;html=1;entryX=1;entryY=0.3333333333333333;entryDx=0;entryDy=0;entryPerimeter=0;" edge="1" parent="WIyWlLk6GJQsqaUBKTNV-1" source="oeGGP7yuaMlsALmMAgm1-9" target="oeGGP7yuaMlsALmMAgm1-7">
          <mxGeometry relative="1" as="geometry">
            <Array as="points">
              <mxPoint x="500" y="684" />
              <mxPoint x="500" y="684" />
            </Array>
          </mxGeometry>
        </mxCell>
        <mxCell id="oeGGP7yuaMlsALmMAgm1-33" style="edgeStyle=orthogonalEdgeStyle;rounded=0;orthogonalLoop=1;jettySize=auto;html=1;entryX=0;entryY=0;entryDx=0;entryDy=90;entryPerimeter=0;" edge="1" parent="WIyWlLk6GJQsqaUBKTNV-1" source="oeGGP7yuaMlsALmMAgm1-9" target="oeGGP7yuaMlsALmMAgm1-0">
          <mxGeometry relative="1" as="geometry" />
        </mxCell>
        <mxCell id="oeGGP7yuaMlsALmMAgm1-34" value="not consistent&amp;nbsp;read possible" style="edgeLabel;html=1;align=center;verticalAlign=middle;resizable=0;points=[];rotation=0;" vertex="1" connectable="0" parent="oeGGP7yuaMlsALmMAgm1-33">
          <mxGeometry x="-0.7828" relative="1" as="geometry">
            <mxPoint x="264" y="130" as="offset" />
          </mxGeometry>
        </mxCell>
        <mxCell id="oeGGP7yuaMlsALmMAgm1-38" value="" style="swimlane;startSize=0;" vertex="1" parent="WIyWlLk6GJQsqaUBKTNV-1">
          <mxGeometry x="950" y="350" width="420" height="740" as="geometry" />
        </mxCell>
        <mxCell id="oeGGP7yuaMlsALmMAgm1-39" value="QMDB &amp;amp; API" style="text;html=1;align=center;verticalAlign=middle;whiteSpace=wrap;rounded=0;" vertex="1" parent="oeGGP7yuaMlsALmMAgm1-38">
          <mxGeometry x="20" y="20" width="60" height="30" as="geometry" />
        </mxCell>
        <mxCell id="oeGGP7yuaMlsALmMAgm1-1" value="in-memory indexer" style="shape=cylinder3;whiteSpace=wrap;html=1;boundedLbl=1;backgroundOutline=1;size=15;" vertex="1" parent="oeGGP7yuaMlsALmMAgm1-38">
          <mxGeometry x="170" y="75" width="90" height="140" as="geometry" />
        </mxCell>
        <mxCell id="oeGGP7yuaMlsALmMAgm1-0" value="QMDB" style="shape=cylinder3;whiteSpace=wrap;html=1;boundedLbl=1;backgroundOutline=1;size=15;" vertex="1" parent="oeGGP7yuaMlsALmMAgm1-38">
          <mxGeometry x="160" y="355" width="110" height="130" as="geometry" />
        </mxCell>
        <mxCell id="oeGGP7yuaMlsALmMAgm1-5" style="edgeStyle=orthogonalEdgeStyle;rounded=0;orthogonalLoop=1;jettySize=auto;html=1;startArrow=classic;startFill=1;" edge="1" parent="oeGGP7yuaMlsALmMAgm1-38" source="oeGGP7yuaMlsALmMAgm1-1" target="oeGGP7yuaMlsALmMAgm1-0">
          <mxGeometry relative="1" as="geometry" />
        </mxCell>
        <mxCell id="oeGGP7yuaMlsALmMAgm1-6" value="Used in QMDB*" style="edgeLabel;html=1;align=center;verticalAlign=middle;resizable=0;points=[];" vertex="1" connectable="0" parent="oeGGP7yuaMlsALmMAgm1-5">
          <mxGeometry x="-0.2" y="3" relative="1" as="geometry">
            <mxPoint as="offset" />
          </mxGeometry>
        </mxCell>
        <mxCell id="oeGGP7yuaMlsALmMAgm1-35" value="Disk" style="shape=cylinder3;whiteSpace=wrap;html=1;boundedLbl=1;backgroundOutline=1;size=15;" vertex="1" parent="oeGGP7yuaMlsALmMAgm1-38">
          <mxGeometry x="185" y="585" width="60" height="80" as="geometry" />
        </mxCell>
        <mxCell id="oeGGP7yuaMlsALmMAgm1-36" style="edgeStyle=orthogonalEdgeStyle;rounded=0;orthogonalLoop=1;jettySize=auto;html=1;entryX=0.5;entryY=0;entryDx=0;entryDy=0;entryPerimeter=0;startArrow=classic;startFill=1;" edge="1" parent="oeGGP7yuaMlsALmMAgm1-38" source="oeGGP7yuaMlsALmMAgm1-0" target="oeGGP7yuaMlsALmMAgm1-35">
          <mxGeometry relative="1" as="geometry" />
        </mxCell>
        <mxCell id="oeGGP7yuaMlsALmMAgm1-40" value="" style="swimlane;startSize=0;" vertex="1" parent="WIyWlLk6GJQsqaUBKTNV-1">
          <mxGeometry x="550" y="350" width="380" height="740" as="geometry" />
        </mxCell>
        <mxCell id="oeGGP7yuaMlsALmMAgm1-41" value="QF HashDB" style="text;html=1;align=center;verticalAlign=middle;whiteSpace=wrap;rounded=0;" vertex="1" parent="oeGGP7yuaMlsALmMAgm1-40">
          <mxGeometry x="20" y="20" width="60" height="30" as="geometry" />
        </mxCell>
        <mxCell id="oeGGP7yuaMlsALmMAgm1-9" value="value &amp;lt;- get(key)" style="shape=process;whiteSpace=wrap;html=1;backgroundOutline=1;" vertex="1" parent="oeGGP7yuaMlsALmMAgm1-40">
          <mxGeometry x="40" y="300" width="120" height="60" as="geometry" />
        </mxCell>
        <mxCell id="oeGGP7yuaMlsALmMAgm1-23" value="lower_bound (?) &amp;lt;-prefix_search(str)" style="shape=process;whiteSpace=wrap;html=1;backgroundOutline=1;" vertex="1" parent="oeGGP7yuaMlsALmMAgm1-40">
          <mxGeometry x="40" y="380" width="120" height="60" as="geometry" />
        </mxCell>
        <mxCell id="oeGGP7yuaMlsALmMAgm1-10" value="lower_bound &lt;br&gt;&amp;lt;- get_iterator(str)" style="shape=process;whiteSpace=wrap;html=1;backgroundOutline=1;" vertex="1" parent="oeGGP7yuaMlsALmMAgm1-40">
          <mxGeometry x="40" y="460" width="120" height="60" as="geometry" />
        </mxCell>
        <mxCell id="oeGGP7yuaMlsALmMAgm1-58" value="delete(key)" style="shape=process;whiteSpace=wrap;html=1;backgroundOutline=1;" vertex="1" parent="oeGGP7yuaMlsALmMAgm1-40">
          <mxGeometry x="40" y="540" width="120" height="60" as="geometry" />
        </mxCell>
        <mxCell id="oeGGP7yuaMlsALmMAgm1-42" value="" style="swimlane;startSize=0;" vertex="1" parent="WIyWlLk6GJQsqaUBKTNV-1">
          <mxGeometry x="150" y="350" width="380" height="740" as="geometry" />
        </mxCell>
        <mxCell id="oeGGP7yuaMlsALmMAgm1-43" value="SP Trie &amp;amp; Substrate" style="text;html=1;align=center;verticalAlign=middle;whiteSpace=wrap;rounded=0;" vertex="1" parent="oeGGP7yuaMlsALmMAgm1-42">
          <mxGeometry x="20" y="20" width="60" height="30" as="geometry" />
        </mxCell>
        <mxCell id="oeGGP7yuaMlsALmMAgm1-7" value="ProofStorage" style="shape=umlActor;verticalLabelPosition=bottom;verticalAlign=top;html=1;outlineConnect=0;" vertex="1" parent="oeGGP7yuaMlsALmMAgm1-42">
          <mxGeometry x="140" y="310" width="30" height="70" as="geometry" />
        </mxCell>
        <mxCell id="oeGGP7yuaMlsALmMAgm1-45" value="at_process_start" style="shape=process;whiteSpace=wrap;html=1;backgroundOutline=1;" vertex="1" parent="oeGGP7yuaMlsALmMAgm1-42">
          <mxGeometry x="95" y="180" width="120" height="60" as="geometry" />
        </mxCell>
        <mxCell id="oeGGP7yuaMlsALmMAgm1-50" style="edgeStyle=orthogonalEdgeStyle;rounded=0;orthogonalLoop=1;jettySize=auto;html=1;dashed=1;startArrow=oval;startFill=1;endArrow=oval;endFill=1;" edge="1" parent="WIyWlLk6GJQsqaUBKTNV-1" source="oeGGP7yuaMlsALmMAgm1-49" target="oeGGP7yuaMlsALmMAgm1-1">
          <mxGeometry relative="1" as="geometry" />
        </mxCell>
        <mxCell id="oeGGP7yuaMlsALmMAgm1-49" value="Recovery:&amp;nbsp;https://github.com/LayerZero-Labs/qmdb/blob/main/qmdb/src/lib.rs#L250" style="text;html=1;align=center;verticalAlign=middle;whiteSpace=wrap;rounded=0;" vertex="1" parent="WIyWlLk6GJQsqaUBKTNV-1">
          <mxGeometry x="1290" y="240" width="240" height="90" as="geometry" />
        </mxCell>
        <mxCell id="oeGGP7yuaMlsALmMAgm1-51" value="In-memory index (we could extend and reuse code):&amp;nbsp;https://github.com/LayerZero-Labs/qmdb/blob/main/qmdb/src/indexer/inmem.rs,&amp;nbsp;https://github.com/LayerZero-Labs/qmdb/blob/main/qmdb/examples/v3_indexer.rs" style="text;html=1;align=center;verticalAlign=middle;whiteSpace=wrap;rounded=0;" vertex="1" parent="WIyWlLk6GJQsqaUBKTNV-1">
          <mxGeometry x="310" y="220" width="470" height="90" as="geometry" />
        </mxCell>
        <mxCell id="oeGGP7yuaMlsALmMAgm1-52" style="edgeStyle=orthogonalEdgeStyle;rounded=0;orthogonalLoop=1;jettySize=auto;html=1;dashed=1;startArrow=oval;startFill=1;endArrow=oval;endFill=1;entryX=0.75;entryY=0;entryDx=0;entryDy=0;exitX=0;exitY=0.5;exitDx=0;exitDy=0;" edge="1" parent="WIyWlLk6GJQsqaUBKTNV-1" source="oeGGP7yuaMlsALmMAgm1-49" target="oeGGP7yuaMlsALmMAgm1-19">
          <mxGeometry relative="1" as="geometry">
            <mxPoint x="1300" y="295" as="sourcePoint" />
            <mxPoint x="1175" y="435" as="targetPoint" />
          </mxGeometry>
        </mxCell>
        <mxCell id="oeGGP7yuaMlsALmMAgm1-53" style="edgeStyle=orthogonalEdgeStyle;rounded=0;orthogonalLoop=1;jettySize=auto;html=1;dashed=1;startArrow=oval;startFill=1;endArrow=oval;endFill=1;entryX=0.5;entryY=1;entryDx=0;entryDy=0;exitX=0.145;exitY=0;exitDx=0;exitDy=4.35;exitPerimeter=0;" edge="1" parent="WIyWlLk6GJQsqaUBKTNV-1" source="oeGGP7yuaMlsALmMAgm1-16" target="oeGGP7yuaMlsALmMAgm1-51">
          <mxGeometry relative="1" as="geometry">
            <mxPoint x="1300" y="295" as="sourcePoint" />
            <mxPoint x="865" y="370" as="targetPoint" />
          </mxGeometry>
        </mxCell>
        <mxCell id="oeGGP7yuaMlsALmMAgm1-54" value="API:&amp;nbsp;https://github.com/LayerZero-Labs/qmdb/blob/main/qmdb/examples/v2_demo.rs" style="text;html=1;align=center;verticalAlign=middle;whiteSpace=wrap;rounded=0;" vertex="1" parent="WIyWlLk6GJQsqaUBKTNV-1">
          <mxGeometry x="1180" y="1079" width="330" height="90" as="geometry" />
        </mxCell>
        <mxCell id="oeGGP7yuaMlsALmMAgm1-55" style="edgeStyle=orthogonalEdgeStyle;rounded=0;orthogonalLoop=1;jettySize=auto;html=1;entryX=1;entryY=0;entryDx=0;entryDy=90;entryPerimeter=0;dashed=1;startArrow=oval;startFill=1;endArrow=oval;endFill=1;" edge="1" parent="WIyWlLk6GJQsqaUBKTNV-1" source="oeGGP7yuaMlsALmMAgm1-54" target="oeGGP7yuaMlsALmMAgm1-0">
          <mxGeometry relative="1" as="geometry">
            <Array as="points">
              <mxPoint x="1340" y="795" />
            </Array>
          </mxGeometry>
        </mxCell>
        <mxCell id="oeGGP7yuaMlsALmMAgm1-56" style="edgeStyle=orthogonalEdgeStyle;rounded=0;orthogonalLoop=1;jettySize=auto;html=1;dashed=1;startArrow=oval;startFill=1;endArrow=oval;endFill=1;exitX=0;exitY=0.5;exitDx=0;exitDy=0;entryX=0.5;entryY=1;entryDx=0;entryDy=0;" edge="1" parent="WIyWlLk6GJQsqaUBKTNV-1" source="oeGGP7yuaMlsALmMAgm1-54" target="oeGGP7yuaMlsALmMAgm1-40">
          <mxGeometry relative="1" as="geometry">
            <mxPoint x="1350" y="1089" as="sourcePoint" />
            <mxPoint x="894" y="630" as="targetPoint" />
            <Array as="points">
              <mxPoint x="740" y="1124" />
            </Array>
          </mxGeometry>
        </mxCell>
        <mxCell id="oeGGP7yuaMlsALmMAgm1-59" style="edgeStyle=orthogonalEdgeStyle;rounded=0;orthogonalLoop=1;jettySize=auto;html=1;entryX=1;entryY=0;entryDx=0;entryDy=27.5;entryPerimeter=0;" edge="1" parent="WIyWlLk6GJQsqaUBKTNV-1" source="oeGGP7yuaMlsALmMAgm1-19" target="oeGGP7yuaMlsALmMAgm1-16">
          <mxGeometry relative="1" as="geometry">
            <Array as="points">
              <mxPoint x="730" y="488" />
            </Array>
          </mxGeometry>
        </mxCell>
        <mxCell id="oeGGP7yuaMlsALmMAgm1-61" style="edgeStyle=orthogonalEdgeStyle;rounded=0;orthogonalLoop=1;jettySize=auto;html=1;entryX=0;entryY=0.5;entryDx=0;entryDy=0;entryPerimeter=0;" edge="1" parent="WIyWlLk6GJQsqaUBKTNV-1" source="oeGGP7yuaMlsALmMAgm1-8" target="oeGGP7yuaMlsALmMAgm1-16">
          <mxGeometry relative="1" as="geometry">
            <Array as="points">
              <mxPoint x="570" y="580" />
              <mxPoint x="570" y="510" />
            </Array>
          </mxGeometry>
        </mxCell>
        <mxCell id="oeGGP7yuaMlsALmMAgm1-62" value="update index" style="edgeLabel;html=1;align=center;verticalAlign=middle;resizable=0;points=[];rotation=-90;" vertex="1" connectable="0" parent="oeGGP7yuaMlsALmMAgm1-61">
          <mxGeometry x="-0.0951" y="3" relative="1" as="geometry">
            <mxPoint x="-7" as="offset" />
          </mxGeometry>
        </mxCell>
        <mxCell id="oeGGP7yuaMlsALmMAgm1-63" style="edgeStyle=orthogonalEdgeStyle;rounded=0;orthogonalLoop=1;jettySize=auto;html=1;entryX=0;entryY=0.5;entryDx=0;entryDy=0;" edge="1" parent="WIyWlLk6GJQsqaUBKTNV-1" source="oeGGP7yuaMlsALmMAgm1-7" target="oeGGP7yuaMlsALmMAgm1-58">
          <mxGeometry relative="1" as="geometry">
            <Array as="points">
              <mxPoint x="305" y="920" />
            </Array>
          </mxGeometry>
        </mxCell>
        <mxCell id="oeGGP7yuaMlsALmMAgm1-65" style="edgeStyle=orthogonalEdgeStyle;rounded=0;orthogonalLoop=1;jettySize=auto;html=1;entryX=0.145;entryY=1;entryDx=0;entryDy=-4.35;entryPerimeter=0;" edge="1" parent="WIyWlLk6GJQsqaUBKTNV-1" source="oeGGP7yuaMlsALmMAgm1-58" target="oeGGP7yuaMlsALmMAgm1-0">
          <mxGeometry relative="1" as="geometry" />
        </mxCell>
        <mxCell id="oeGGP7yuaMlsALmMAgm1-66" style="edgeStyle=orthogonalEdgeStyle;rounded=0;orthogonalLoop=1;jettySize=auto;html=1;entryX=0;entryY=0;entryDx=0;entryDy=67.5;entryPerimeter=0;" edge="1" parent="WIyWlLk6GJQsqaUBKTNV-1" source="oeGGP7yuaMlsALmMAgm1-58" target="oeGGP7yuaMlsALmMAgm1-16">
          <mxGeometry relative="1" as="geometry">
            <Array as="points">
              <mxPoint x="570" y="920" />
              <mxPoint x="570" y="528" />
            </Array>
          </mxGeometry>
        </mxCell>
        <mxCell id="oeGGP7yuaMlsALmMAgm1-68" style="edgeStyle=orthogonalEdgeStyle;rounded=0;orthogonalLoop=1;jettySize=auto;html=1;entryX=0;entryY=1;entryDx=0;entryDy=-15;entryPerimeter=0;" edge="1" parent="WIyWlLk6GJQsqaUBKTNV-1" source="oeGGP7yuaMlsALmMAgm1-10" target="oeGGP7yuaMlsALmMAgm1-0">
          <mxGeometry relative="1" as="geometry">
            <Array as="points">
              <mxPoint x="910" y="860" />
              <mxPoint x="910" y="820" />
            </Array>
          </mxGeometry>
        </mxCell>
        <mxCell id="oeGGP7yuaMlsALmMAgm1-69" value="get value via QMDB key" style="edgeLabel;html=1;align=center;verticalAlign=middle;resizable=0;points=[];" vertex="1" connectable="0" parent="oeGGP7yuaMlsALmMAgm1-68">
          <mxGeometry x="-0.311" relative="1" as="geometry">
            <mxPoint x="-21" as="offset" />
          </mxGeometry>
        </mxCell>
        <mxCell id="oeGGP7yuaMlsALmMAgm1-70" style="edgeStyle=orthogonalEdgeStyle;rounded=0;orthogonalLoop=1;jettySize=auto;html=1;entryX=0;entryY=1;entryDx=0;entryDy=-15;entryPerimeter=0;" edge="1" parent="WIyWlLk6GJQsqaUBKTNV-1" source="oeGGP7yuaMlsALmMAgm1-23" target="oeGGP7yuaMlsALmMAgm1-0">
          <mxGeometry relative="1" as="geometry">
            <Array as="points">
              <mxPoint x="910" y="780" />
              <mxPoint x="910" y="820" />
            </Array>
          </mxGeometry>
        </mxCell>
        <mxCell id="oeGGP7yuaMlsALmMAgm1-71" value="get value via QMDB key" style="edgeLabel;html=1;align=center;verticalAlign=middle;resizable=0;points=[];" vertex="1" connectable="0" parent="oeGGP7yuaMlsALmMAgm1-70">
          <mxGeometry x="-0.6699" y="1" relative="1" as="geometry">
            <mxPoint x="57" as="offset" />
          </mxGeometry>
        </mxCell>
      </root>
    </mxGraphModel>
  </diagram>
</mxfile>
